<svg xmlns="http://www.w3.org/2000/svg" viewBox="0 0 512 512" role="img" aria-label="Konex 360 icon">
  <rect width="512" height="512" rx="112" fill="#F7FBFC"/>
  <path d="M256 72c-101.62 0-184 82.38-184 184s82.38 184 184 184c43.26 0 83.02-14.94 114.42-39.93l-37.96-56.5C312.22 359.73 285.86 370 256 370c-62.96 0-114-51.04-114-114s51.04-114 114-114c60.96 0 110.72 47.84 113.82 108h70.03C436.72 151.14 355.57 72 256 72Z" fill="#17A8A6"/>
  <rect x="182" y="154" width="52" height="204" rx="26" fill="#0B3C5D"/>
  <path d="M292.67 258.08 380.44 170.3a30 30 0 0 0-42.43-42.42L232.8 233.08a35 35 0 0 0 0 49.5l109.48 109.48a30 30 0 1 0 42.42-42.43L292.67 258.08Z" fill="#0B3C5D"/>
  <path d="M287.85 258.08 371.32 174.6a23 23 0 0 0-32.53-32.52l-93.44 93.44a31.5 31.5 0 0 0 0 44.55l97.85 97.86a23 23 0 0 0 32.53-32.53l-87.88-87.31Z" fill="#FFFFFF"/>
</svg>
