<svg xmlns="http://www.w3.org/2000/svg" viewBox="0 0 520 120" role="img" aria-labelledby="title desc">
  <title id="title">Konex 360</title>
  <desc id="desc">Logotipo de Konex 360 con simbolo K turquesa.</desc>
  <g fill="none" fill-rule="evenodd">
    <path
      d="M72 16c-28.72 0-52 23.28-52 52 0 28.72 23.28 52 52 52 12.22 0 23.45-4.22 32.32-11.28L93.6 92.76A32.78 32.78 0 0 1 72 100c-17.67 0-32-14.33-32-32s14.33-32 32-32c17.12 0 31.1 13.44 31.96 30.34h20.03C123.1 38.38 100.14 16 72 16Z"
      fill="#17A8A6"
    />
    <rect x="51" y="39" width="14" height="58" rx="7" fill="#0B3C5D" />
    <path
      d="M82.9 68.48 107.78 43.6a8.5 8.5 0 0 0-12.02-12.02L65.94 61.4a10 10 0 0 0 0 14.15l31.02 31.01a8.5 8.5 0 1 0 12.02-12.02L82.9 68.48Z"
      fill="#0B3C5D"
    />
    <path
      d="M81.54 68.48 105.2 44.82a6.5 6.5 0 0 0-9.2-9.2L69.5 62.12a9 9 0 0 0 0 12.73l27.72 27.72a6.5 6.5 0 0 0 9.2-9.19L81.54 68.48Z"
      fill="#F7FBFC"
    />
    <text
      x="148"
      y="80"
      fill="#111827"
      font-family="Arial, Helvetica, sans-serif"
      font-size="56"
      font-weight="800"
      letter-spacing="0"
    >
      Konex 360
    </text>
  </g>
</svg>
